<svg height="910" width="720" xmlns="http://www.w3.org/2000/svg">
<rect height="910" fill="#555" width="720"></rect>
<text fill="#7f7" font-family="Courier New" font-size="12" xml:space="preserve">
<tspan x="10" y="26">└─┬ metalsmith@2.3.0 </tspan>
<tspan x="10" y="42">  ├── absolute@0.0.1 </tspan>
<tspan x="10" y="58">  ├─┬ chalk@1.1.3 </tspan>
<tspan x="10" y="74">  │ ├── ansi-styles@2.2.1 </tspan>
<tspan x="10" y="90">  │ ├── escape-string-regexp@1.0.5 </tspan>
<tspan x="10" y="106">  │ ├─┬ has-ansi@2.0.0 </tspan>
<tspan x="10" y="122">  │ │ └── ansi-regex@2.1.1 </tspan>
<tspan x="10" y="138">  │ ├── strip-ansi@3.0.1 </tspan>
<tspan x="10" y="154">  │ └── supports-color@2.0.0 </tspan>
<tspan x="10" y="170">  ├── clone@1.0.2 </tspan>
<tspan x="10" y="186">  ├─┬ co-fs-extra@1.2.1 </tspan>
<tspan x="10" y="202">  │ ├─┬ co-from-stream@0.0.0 </tspan>
<tspan x="10" y="218">  │ │ └── co-read@0.0.1 </tspan>
<tspan x="10" y="234">  │ ├─┬ fs-extra@0.26.7 </tspan>
<tspan x="10" y="250">  │ │ ├── graceful-fs@4.1.11 </tspan>
<tspan x="10" y="266">  │ │ ├── jsonfile@2.4.0 </tspan>
<tspan x="10" y="282">  │ │ ├── klaw@1.3.1 </tspan>
<tspan x="10" y="298">  │ │ └── path-is-absolute@1.0.1 </tspan>
<tspan x="10" y="314">  │ └─┬ thunkify-wrap@1.0.4 </tspan>
<tspan x="10" y="330">  │   └── enable@1.3.2 </tspan>
<tspan x="10" y="346">  ├─┬ commander@2.9.0 </tspan>
<tspan x="10" y="362">  │ └── graceful-readlink@1.0.1 </tspan>
<tspan x="10" y="378">  ├─┬ gray-matter@2.1.1 </tspan>
<tspan x="10" y="394">  │ ├─┬ ansi-red@0.1.1 </tspan>
<tspan x="10" y="410">  │ │ └── ansi-wrap@0.1.0 </tspan>
<tspan x="10" y="426">  │ ├── coffee-script@1.12.4 </tspan>
<tspan x="10" y="442">  │ ├─┬ extend-shallow@2.0.1 </tspan>
<tspan x="10" y="458">  │ │ └── is-extendable@0.1.1 </tspan>
<tspan x="10" y="474">  │ ├─┬ js-yaml@3.8.2 </tspan>
<tspan x="10" y="490">  │ │ ├─┬ argparse@1.0.9 </tspan>
<tspan x="10" y="506">  │ │ │ └── sprintf-js@1.0.3 </tspan>
<tspan x="10" y="522">  │ │ └── esprima@3.1.3 </tspan>
<tspan x="10" y="538">  │ └── toml@2.3.2 </tspan>
<tspan x="10" y="554">  ├── has-generators@1.0.1 </tspan>
<tspan x="10" y="570">  ├── is@3.2.1 </tspan>
<tspan x="10" y="586">  ├── is-utf8@0.2.1 </tspan>
<tspan x="10" y="602">  ├─┬ recursive-readdir@2.1.1 </tspan>
<tspan x="10" y="618">  │ └─┬ minimatch@3.0.3 </tspan>
<tspan x="10" y="634">  │   └─┬ brace-expansion@1.1.6 </tspan>
<tspan x="10" y="650">  │     ├── balanced-match@0.4.2 </tspan>
<tspan x="10" y="666">  │     └── concat-map@0.0.1 </tspan>
<tspan x="10" y="682">  ├─┬ rimraf@2.6.1 </tspan>
<tspan x="10" y="698">  │ └─┬ glob@7.1.1 </tspan>
<tspan x="10" y="714">  │   ├── fs.realpath@1.0.0 </tspan>
<tspan x="10" y="730">  │   ├─┬ inflight@1.0.6 </tspan>
<tspan x="10" y="746">  │   │ └── wrappy@1.0.2 </tspan>
<tspan x="10" y="762">  │   ├── inherits@2.0.3 </tspan>
<tspan x="10" y="778">  │   └── once@1.4.0 </tspan>
<tspan x="10" y="794">  ├── stat-mode@0.2.2 </tspan>
<tspan x="10" y="810">  ├── thunkify@2.1.2 </tspan>
<tspan x="10" y="826">  ├─┬ unyield@0.0.1 </tspan>
<tspan x="10" y="842">  │ └── co@3.1.0 </tspan>
<tspan x="10" y="858">  ├─┬ ware@1.3.0 </tspan>
<tspan x="10" y="874">  │ └── wrap-fn@0.1.5 </tspan>
<tspan x="10" y="890">  └── win-fork@1.1.1</tspan>
</text>
</svg>
